# xmcd
# 
# Track frame offsets:
#     150
#     16648
#     33804
#     48809
#     62589
#     75742
#     91834
#     106251
#     121242
#     137095
#     146646
#     161100
# 
# Disc length: 2417
# 
# Revision: 1
# Processed by: cddbd v1.5.2PL0 Copyright (c) Steve Scherf et al.
# Submitted via: BonkEnc v1.0.6
# 
DISCID=8c096f0c
DTITLE=Gino e Geno - Ela Chorou de Amor
DYEAR=2002
DGENRE=Sertanejo
TTITLE0=Ela Chorou de Amor
TTITLE1=Mulher que não dá voa
TTITLE2=Deixe seu recado
TTITLE3=Indo prá Goiania
TTITLE4=Sou feio mas to na moda
TTITLE5=Pinga na Garganta
TTITLE6=O que é que ela tem
TTITLE7=O Gato Comeu
TTITLE8=Tição Aceso
TTITLE9=Trem tá Feio
TTITLE10=Nóis não vive é sem Dinheiro
TTITLE11=Nossa Senhora Aparecida
EXTD=
EXTT0=
EXTT1=
EXTT2=
EXTT3=
EXTT4=
EXTT5=
EXTT6=
EXTT7=
EXTT8=
EXTT9=
EXTT10=
EXTT11=
PLAYORDER=
